<svg xmlns="http://www.w3.org/2000/svg" width="130.04" height="130.04" viewBox="0 0 130.04 130.04">
  <defs>
    <style>
      .cls-1 {
        fill: #d4e2fb;
      }

      .cls-2 {
        fill: #002891;
      }

      .cls-2, .cls-3, .cls-4 {
        fill-rule: evenodd;
      }

      .cls-3 {
        fill: #0033a1;
      }

      .cls-4 {
        fill: #ec963a;
      }
    </style>
  </defs>
  <g id="Logo" transform="translate(-411 -251)">
    <circle id="Ellipse_195" data-name="Ellipse 195" class="cls-1" cx="65.02" cy="65.02" r="65.02" transform="translate(411 251)"/>
    <g id="trefoil" transform="translate(-21.925 -1)">
      <path id="Path_273" data-name="Path 273" class="cls-2" d="M411.958,270.36c1.316,5.123,2.7,10.61,2.442,15.939a16.263,16.263,0,0,1-1.938,7.77,46.153,46.153,0,0,1-5.214,6.272,40.922,40.922,0,0,0-5.608,8.084,25.984,25.984,0,0,0-2.508,9.321,15.282,15.282,0,0,1-1.049-7.489,22.574,22.574,0,0,1,2.4-7.85c1.348-2.527,2.917-4.843,4.443-7.262,1.371-2.172,2.432-4.592,3.579-6.89,2.818-5.644,3.267-11.69,3.456-17.894" transform="translate(85.196 49.702)"/>
      <path id="Path_274" data-name="Path 274" class="cls-3" d="M348.75,233.449c.956,5.422-.89,10.934-1.137,16.353-.119,2.6-.039,5.212,1.953,7.132a8.081,8.081,0,0,0,6.813,1.84,27.171,27.171,0,0,0,7.93-2.508c2.578-1.24,5.1-2.585,7.66-3.865,2.8-1.4,5.5-2.972,8.412-4.75,1.713-1.047,3.649-2.273,5.6-3.489a12.961,12.961,0,0,1,4.564-2.12c-1.616,2.1-3.051,4.376-4.809,6.354a35.78,35.78,0,0,1-6.188,5.469,52.524,52.524,0,0,1-14.345,7.216,23.7,23.7,0,0,1-15.705-.027c-5.563-2.138-6.474-8.172-6.694-13.471a76.167,76.167,0,0,0-1.083-8.392,78,78,0,0,1-.806-8.222c-.257-5.36.76-10.844,5.072-14.372,2.1-1.72,5-2.278,7.619-2.54a38.825,38.825,0,0,1,8.059.055,28.813,28.813,0,0,1,7.908,1.791c2.549,1.019,4.967,2.52,7.413,3.765-3.752-9.376-8.692-21.828-.318-30.205,3.743-3.743,9.469-4.024,14.337-2.755,1.328.347,2.638.954,3.986,1.178a8.4,8.4,0,0,0,3.816-.607,53.848,53.848,0,0,1,7.533-2.011,25.347,25.347,0,0,1,8.213-.345,11.105,11.105,0,0,1,6.478,4.116,14.582,14.582,0,0,1,3.081,7.367,24.081,24.081,0,0,1-.742,7.63,38.075,38.075,0,0,1-4.075,9.483c-1.714,3.1-3.778,5.977-5.779,8.89a65.788,65.788,0,0,1,15.547-2.927,32.75,32.75,0,0,1,8.237.081,15.147,15.147,0,0,1,3.886,1.306,9.06,9.06,0,0,1,2.727,2.656c1.571,1.884,1.606,4.882,1.462,7.172a16.591,16.591,0,0,1-2.5,7.207,29.223,29.223,0,0,0-2.547,7.581,35.507,35.507,0,0,1-2.732,7.89c-2.516,5.027-7.777,7.247-12.974,8.33a22.3,22.3,0,0,1-8.152.053,18.915,18.915,0,0,1-7.179-3.029,32.788,32.788,0,0,1-8.15-8.119,23.289,23.289,0,0,1-2.683-5.242c-.738-1.8-1.692-3.525-2.578-5.253,5.582,1.116,10.076,4.384,14.3,8.032a55.494,55.494,0,0,0,6.529,4.871,15.343,15.343,0,0,0,7.79,1.838c2.479,0,5.225-.041,7.451-1.278a9.058,9.058,0,0,0,4.517-6.207c.6-2.585-1.1-5-.736-7.547.182-1.269.707-2.457.973-3.711a17.1,17.1,0,0,0,.447-3.668c0-2.81-.65-5.266-2.966-7.075-1.867-1.459-4.772-1.979-7.078-2.09-2.788-.133-5.559-.161-8.349-.063a45.68,45.68,0,0,0-8.024,1.177,32.511,32.511,0,0,0-5.818,2.236c7.98-7.089,16.145-16.312,14.058-27.791a20.414,20.414,0,0,0-3.2-7.115,8.607,8.607,0,0,0-5.892-3.988c-2.536-.508-4.988.866-7.237,1.888-2.411,1.1-5.132,2.446-7.808,2.714a20.249,20.249,0,0,1-4.069-.074c-1.227-.122-2.422-.685-3.684-.76-2.329-.137-5.39.051-7.28,1.625-4.28,3.562-4.4,8.9-3.853,14.067a47.659,47.659,0,0,0,5.625,17.213c-5.047-1.577-9.85-3.859-14.938-5.273-4.829-1.341-11.12-1.346-14.864,2.4-3.124,3.125-3.369,7.743-3.022,11.911" transform="translate(105.131 79.605)"/>
      <path id="Path_275" data-name="Path 275" class="cls-2" d="M421.278,285.506c.524,2.67,1.176,5.36,1.528,8.057.343,2.635.789,5.392.262,8.034a13.831,13.831,0,0,1-3.056,6.781c-1.75,2-4.075,3.433-5.954,5.312a21.851,21.851,0,0,0-5.38,7.949c-1.157,3.083-.976,6.642-1.379,9.869a24.177,24.177,0,0,0-.715-3.555,31.8,31.8,0,0,1-.514-4.194,21.323,21.323,0,0,1,1.614-7.842c1.009-2.515,3.045-4.58,4.578-6.791,1.55-2.239,3.63-4.061,5.129-6.312,3.372-5.058,3.561-11.465,3.886-17.309" transform="translate(82.369 44.414)"/>
      <path id="Path_276" data-name="Path 276" class="cls-4" d="M430.5,209.928l-4.069,6.528,6.375,3.917-7.22.844.461,7.6-5.222-5.376-4.685,5.683v-8.141l-7.757-.077,6.912-4.147-4.455-6.451L418.363,213l2.227-7.987,2.533,8.141Z" transform="translate(81.564 72.516)"/>
    </g>
  </g>
</svg>
